<svg xmlns="http://www.w3.org/2000/svg" version="1.1" viewBox="-5.0 -10.0 110.0 135.0">
 <path d="m3.7422 84.637h7.0977v-0.78125 0.78125c0.99609 0 1.9336-0.39062 2.6406-1.0977 0.70703-0.70703 1.0977-1.6445 1.0977-2.6406v-2.2656l24.555 10.027c0.09375 0.039063 0.19531 0.058594 0.29688 0.058594h32.816c0.10156 0 0.19922-0.019531 0.29297-0.058594l23.039-9.3789c3.4883-1.4219 5.2891-5.125 4.0156-8.2539-0.90625-2.2227-3.1953-3.6602-5.8359-3.6602-0.95703 0-1.8984 0.1875-2.8047 0.55469l-0.44531 0.17969c0.23047-1.3516 0-2.6992-0.67969-3.8594-1.0469-1.7852-3.0195-2.8516-5.2734-2.8516-0.95313 0-1.9023 0.19531-2.7969 0.56641-0.035156-0.070312-0.070312-0.13672-0.10937-0.20312 0.17969-0.19531 0.36719-0.37109 0.5625-0.51172 0.88281-0.64063 2.3008-0.92969 3.6758-1.2031 2.0039-0.40234 4.0742-0.82031 5.1992-2.3633 1.1133-1.5273 0.875-3.6133 0.64062-5.6328-0.16016-1.4023-0.32812-2.8516 0.015626-3.9102 0.32031-0.99219 1.2383-1.9805 2.2109-3.0312 1.4062-1.5234 2.8633-3.0977 2.8633-5.0742 0-1.9766-1.457-3.5508-2.8633-5.0742-0.97266-1.0508-1.8867-2.043-2.2109-3.0312-0.34375-1.0586-0.17578-2.5078-0.015626-3.9102 0.23047-2.0195 0.46875-4.1055-0.64062-5.6328-1.125-1.543-3.1953-1.9609-5.1992-2.3633-1.375-0.27734-2.793-0.5625-3.6758-1.2031-0.86328-0.62891-1.5352-1.8242-2.2461-3.0898-1.0078-1.7969-2.0469-3.6523-3.8906-4.25-0.37891-0.12109-0.78516-0.18359-1.2109-0.18359-1.4023 0-2.8594 0.66406-4.2734 1.3086-1.3047 0.59375-2.6523 1.2109-3.7969 1.2109s-2.4922-0.61328-3.7969-1.2109c-1.4102-0.64453-2.8711-1.3086-4.2734-1.3086-0.42578 0-0.83203 0.0625-1.2109 0.18359-1.8438 0.59766-2.8828 2.4531-3.8906 4.25-0.71094 1.2656-1.3789 2.4609-2.2461 3.0898-0.88281 0.64062-2.3008 0.92969-3.6758 1.2031-2.0039 0.40234-4.0742 0.82031-5.1992 2.3633-1.1133 1.5273-0.875 3.6133-0.64062 5.6328 0.16016 1.4023 0.32812 2.8516-0.015625 3.9102-0.32031 0.99219-1.2383 1.9805-2.2109 3.0312-1.4062 1.5234-2.8633 3.0977-2.8633 5.0742 0 1.9766 1.457 3.5508 2.8633 5.0742 0.97266 1.0508 1.8867 2.043 2.2109 3.0312 0.34375 1.0586 0.17578 2.5078 0.015625 3.9102-0.21875 1.8945-0.44141 3.8516 0.45312 5.3477l-6.875-4.8594c-0.13281-0.09375-0.28906-0.14453-0.45312-0.14453l-20.406-0.003907v-2.1836c0-2.0625-1.6797-3.7383-3.7383-3.7422h-7.1016c-2.0586 0-3.7383 1.6797-3.7383 3.7383v30.699c0 2.0625 1.6797 3.7422 3.7422 3.7422zm-0.003907-36.617h7.0977c1.1992 0 2.1797 0.97656 2.1797 2.1797v30.699c0 0.57812-0.22656 1.125-0.64062 1.5391s-0.95703 0.64062-1.5352 0.64062h-7.0977c-1.1992 0-2.1797-0.97656-2.1797-2.1797v-30.703c0-1.1992 0.97656-2.1758 2.1758-2.1758zm37.051-12.008c1.043-1.1289 2.1211-2.293 2.5469-3.6094 0.44922-1.3789 0.26172-3.0039 0.082031-4.5703-0.20703-1.8008-0.39844-3.5 0.35156-4.5352 0.76562-1.0547 2.4531-1.3906 4.2422-1.7539 1.5391-0.30859 3.1289-0.62891 4.2852-1.4727 1.1406-0.83203 1.9297-2.2344 2.6875-3.5898 0.89844-1.6016 1.7461-3.1172 3.0078-3.5273 0.22266-0.074219 0.46094-0.10938 0.72656-0.10938 1.0625 0 2.3047 0.56641 3.625 1.168 1.4531 0.66406 2.9609 1.3516 4.4453 1.3516 1.4844 0 2.9883-0.6875 4.4453-1.3516 1.3164-0.60156 2.5625-1.168 3.625-1.168 0.26562 0 0.50391 0.035156 0.72656 0.10938 1.2617 0.41016 2.1094 1.9258 3.0117 3.5273 0.76172 1.3555 1.5469 2.7578 2.6875 3.5898 1.1562 0.84375 2.75 1.1641 4.2852 1.4727 1.7891 0.35938 3.4766 0.69922 4.2422 1.7539 0.75391 1.0352 0.55859 2.7344 0.35156 4.5352-0.17969 1.5664-0.36328 3.1914 0.082032 4.5703 0.42578 1.3164 1.5078 2.4844 2.5469 3.6094 1.2031 1.3008 2.4492 2.6484 2.4492 4.0117 0 1.3633-1.2461 2.7109-2.4492 4.0117-1.043 1.1289-2.1211 2.293-2.5469 3.6094-0.44922 1.3789-0.26172 3-0.082032 4.5703 0.20703 1.8008 0.40234 3.5-0.35156 4.5352-0.76562 1.0508-2.4531 1.3906-4.2422 1.7539-1.5391 0.30859-3.1289 0.62891-4.2891 1.4727-1.1406 0.83203-1.9297 2.2344-2.6875 3.5898-0.89844 1.6055-1.7461 3.1172-3.0117 3.5273-0.22266 0.074219-0.46484 0.10938-0.72656 0.10938-1.0625 0-2.3047-0.56641-3.6211-1.168-1.4531-0.66406-2.9609-1.3516-4.4453-1.3516-1.4844 0-2.9883 0.6875-4.4453 1.3516-1.3164 0.60156-2.5586 1.168-3.6211 1.168-0.26562 0-0.50391-0.035156-0.72656-0.10938-1.2617-0.41016-2.1094-1.9258-3.0117-3.5273-0.76172-1.3555-1.5469-2.7578-2.6875-3.5898-1.1562-0.84375-2.75-1.1641-4.2891-1.4727-1.7891-0.35938-3.4766-0.69922-4.2422-1.7539-0.75391-1.0352-0.55859-2.7344-0.35156-4.5352 0.17969-1.5664 0.36328-3.1914-0.082031-4.5703-0.42578-1.3164-1.5078-2.4844-2.5469-3.6094-1.2031-1.3008-2.4492-2.6484-2.4492-4.0117 0.003906-1.3633 1.25-2.7109 2.4531-4.0117zm47.895 32.84-18.684 7.6055h-13.391c0.125-0.11719 0.24219-0.24219 0.35547-0.37109l4.7383-0.6875c0.10156-0.015626 0.19531-0.046876 0.28125-0.097657l11.461-6.7266c0.47656 0.125 0.95313 0.19922 1.4219 0.19922 0.42578 0 0.83203-0.0625 1.2109-0.18359 1.6367-0.53125 2.6406-2.0547 3.5469-3.6445l2-1.1758c0.011719-0.007812 0.023438-0.019531 0.035156-0.027343 0.019532-0.007813 0.035156-0.011719 0.054688-0.023438 0.88281-0.49609 1.8633-0.76172 2.8398-0.76172 1.6914 0 3.1602 0.77734 3.9258 2.082 0.66016 1.1172 0.72656 2.4922 0.20312 3.8125zm-31.379-0.17578c-0.050782-0.082031-0.10547-0.15625-0.16016-0.23438 0.10938 0.046875 0.22266 0.09375 0.33984 0.13281zm0.67969 1.4141 3.0742-1.8047c0.65234-0.23828 1.3047-0.53516 1.9453-0.82812 1.3047-0.59375 2.6484-1.2109 3.7969-1.2109 1.1445 0 2.4922 0.61328 3.7969 1.2109 0.3125 0.14062 0.625 0.28516 0.9375 0.42188l-10.207 5.9922-3.3281 0.48438c0.48828-1.3164 0.49219-2.8164-0.015625-4.2656zm-1.6875 0c0.003906 0.003906 0.007813 0.007812 0.007813 0.015625 0.80078 1.7188 0.62891 3.5859-0.44922 4.8711-0.77734 0.92578-1.9258 1.4492-3.2422 1.4766h-0.011719-0.011718c-1.3242 0.015625-2.6328-0.46094-3.7031-1.3555-0.023438-0.019531-0.050781-0.039062-0.078125-0.058594l-13.387-8.5742c-0.36328-0.23438-0.84766-0.125-1.0781 0.23828-0.23438 0.36328-0.125 0.84766 0.23828 1.0781l13.344 8.5469c1.3203 1.0898 2.9453 1.6875 4.5859 1.6875h0.070312c0.007813 0 0.015625 0.003906 0.023438 0.003906h17.551c0.10156 0 0.19922-0.019531 0.29297-0.058593l19.129-7.7852c0.003906-0.003906 0.011719-0.007812 0.015625-0.007812l1.9531-0.79688c0.71484-0.29297 1.4609-0.4375 2.2148-0.4375 2 0 3.7227 1.0547 4.3867 2.6836 0.94922 2.332-0.46484 5.125-3.1562 6.2188l-22.898 9.3203h-32.512l-25.004-10.215v-22.996h20.168l20.027 14.164c0.65625 0.55078 1.168 1.2188 1.5234 1.9805zm-8.5898-10.051c1.375 0.27734 2.793 0.5625 3.6758 1.2031 0.86719 0.62891 1.5352 1.8242 2.2461 3.0898 0.34375 0.61719 0.69531 1.2383 1.0781 1.8125l-9.4883-6.707c0.79297 0.25781 1.6484 0.42969 2.4883 0.60156z"/>
 <path d="m7.2891 80.715c2.4141 0 4.3789-1.9648 4.3789-4.3789 0-2.4141-1.9648-4.3789-4.3789-4.3789-2.4141 0-4.3789 1.9648-4.3789 4.3789 0 2.4141 1.9648 4.3789 4.3789 4.3789zm0-7.1914c1.5508 0 2.8164 1.2617 2.8164 2.8164 0 1.5508-1.2617 2.8164-2.8164 2.8164-1.5508 0-2.8164-1.2617-2.8164-2.8164 0-1.5547 1.2656-2.8164 2.8164-2.8164z"/>
 <path d="m66.797 62.441c12.363 0 22.418-10.059 22.418-22.418 0-12.363-10.059-22.418-22.418-22.418-12.363 0-22.418 10.059-22.418 22.418 0 12.363 10.059 22.418 22.418 22.418zm0-43.273c11.5 0 20.855 9.3555 20.855 20.855s-9.3555 20.855-20.855 20.855-20.855-9.3555-20.855-20.855 9.3555-20.855 20.855-20.855z"/>
 <path d="m59.66 42.227-1.418 8.2656c-0.050782 0.29297 0.070312 0.58984 0.3125 0.76562 0.24219 0.17578 0.55859 0.19922 0.82422 0.058594l7.4219-3.9023 7.4219 3.9023c0.11328 0.058594 0.23828 0.089844 0.36328 0.089844 0.16406 0 0.32422-0.050781 0.46094-0.14844 0.24219-0.17578 0.35938-0.47266 0.3125-0.76562l-1.418-8.2656 6.0078-5.8555c0.21484-0.20703 0.28906-0.51953 0.19922-0.80078-0.09375-0.28125-0.33594-0.48828-0.62891-0.53125l-8.3008-1.207-3.7109-7.5195c-0.13281-0.26562-0.40234-0.4375-0.69922-0.4375s-0.57031 0.16797-0.69922 0.4375l-3.7109 7.5195-8.3008 1.207c-0.29297 0.042969-0.53906 0.25-0.62891 0.53125-0.09375 0.28125-0.015625 0.59375 0.19922 0.80078zm3.9453-7.332 3.1914-6.4688 3.1914 6.4688c0.11328 0.23047 0.33203 0.39062 0.58984 0.42578l7.1406 1.0391-5.168 5.0352c-0.18359 0.17969-0.26953 0.4375-0.22266 0.69141l1.2188 7.1094-6.3867-3.3594c-0.22656-0.12109-0.5-0.12109-0.72656 0l-6.3867 3.3594 1.2188-7.1094c0.042969-0.25391-0.039063-0.51172-0.22266-0.69141l-5.168-5.0352 7.1406-1.0391c0.25391-0.035156 0.47656-0.19531 0.58984-0.42578z"/>
<text x="0.0" y="117.5" font-size="5.0" font-weight="bold" font-family="Arbeit Regular, Helvetica, Arial-Unicode, Arial, Sans-serif" fill="#000000">Created by Jagat Icon</text><text x="0.0" y="122.5" font-size="5.0" font-weight="bold" font-family="Arbeit Regular, Helvetica, Arial-Unicode, Arial, Sans-serif" fill="#000000">from Noun Project</text></svg>