<svg width="17" height="17" viewBox="0 0 17 17" fill="none" xmlns="http://www.w3.org/2000/svg">
<g clip-path="url(#clip0_114_110)">
<path d="M3.39488 3.96094H11.6645C11.8377 3.96094 12.0037 4.02972 12.1262 4.15216C12.2486 4.27459 12.3174 4.44065 12.3174 4.6138V15.0597C12.3174 15.2328 12.2486 15.3989 12.1262 15.5213C12.0037 15.6437 11.8377 15.7125 11.6645 15.7125H3.39488C3.22173 15.7125 3.05567 15.6437 2.93323 15.5213C2.8108 15.3989 2.74201 15.2328 2.74201 15.0597V4.6138C2.74201 4.44065 2.8108 4.27459 2.93323 4.15216C3.05567 4.02972 3.22173 3.96094 3.39488 3.96094ZM3.6125 14.842H11.4469V4.83143H3.6125V14.842Z" fill="#D9D9D9"/>
<path d="M4.91682 2.43778C4.91682 2.26463 4.9856 2.09857 5.10804 1.97613C5.23047 1.8537 5.39653 1.78491 5.56968 1.78491H13.8393C14.0125 1.78491 14.1785 1.8537 14.301 1.97613C14.4234 2.09857 14.4922 2.26463 14.4922 2.43778V12.8836C14.4922 13.0568 14.4234 13.2228 14.301 13.3453C14.1785 13.4677 14.0125 13.5365 13.8393 13.5365H13.6217V2.6554H4.91682V2.43778Z" fill="#D9D9D9"/>
</g>
<defs>
<clipPath id="clip0_114_110">
<rect width="15.6688" height="15.6688" fill="white" transform="matrix(-1 0 0 1 16.2334 0.914551)"/>
</clipPath>
</defs>
</svg>
