<svg xmlns="http://www.w3.org/2000/svg" version="1.1" viewBox="-5.0 -10.0 110.0 135.0">
 <path d="m94.094 82.484h-88.188c-3.25 0-5.9062-2.6562-5.9062-5.9062v-65.5c0-3.25 2.6562-5.9062 5.9062-5.9062h88.188c3.25 0 5.9062 2.6562 5.9062 5.9062v65.5c0 3.25-2.6562 5.9062-5.9062 5.9062zm-88.188-74.281c-1.5781 0-2.875 1.2812-2.875 2.875v65.5c0 1.5781 1.2812 2.875 2.875 2.875h88.188c1.5781 0 2.875-1.2812 2.875-2.875v-65.5c0-1.5781-1.2812-2.875-2.875-2.875z"/>
 <path d="m98.484 70.703h-96.969c-0.84375 0-1.5156-0.67188-1.5156-1.5156s0.67188-1.5156 1.5156-1.5156h96.969c0.84375 0 1.5156 0.67188 1.5156 1.5156s-0.67188 1.5156-1.5156 1.5156z"/>
 <path d="m57.391 94.828c-0.84375 0-1.5156-0.67188-1.5156-1.5156v-10.828h-11.734v10.828c0 0.84375-0.67188 1.5156-1.5156 1.5156s-1.5156-0.67188-1.5156-1.5156v-12.344c0-0.84375 0.67188-1.5156 1.5156-1.5156h14.766c0.84375 0 1.5156 0.67188 1.5156 1.5156v12.344c0 0.84375-0.6875 1.5156-1.5156 1.5156z"/>
 <path d="m73.172 94.828h-46.344c-0.84375 0-1.5156-0.67188-1.5156-1.5156s0.67188-1.5156 1.5156-1.5156h46.344c0.84375 0 1.5156 0.67188 1.5156 1.5156s-0.67188 1.5156-1.5156 1.5156z"/>
 <path d="m50 62.797c-13.406 0-24.312-10.906-24.312-24.312s10.906-24.328 24.312-24.328 24.312 10.906 24.312 24.312-10.906 24.328-24.312 24.328zm0-45.609c-11.734 0-21.281 9.5469-21.281 21.281s9.5469 21.297 21.281 21.297 21.281-9.5469 21.281-21.281-9.5469-21.297-21.281-21.297z"/>
 <path d="m50 62.797c-6.3906 0-11.391-10.688-11.391-24.312s5-24.328 11.391-24.328 11.391 10.688 11.391 24.312-5 24.328-11.391 24.328zm0-45.609c-3.9531 0-8.3594 8.7344-8.3594 21.281s4.4062 21.297 8.3594 21.297 8.3594-8.7344 8.3594-21.281-4.4062-21.297-8.3594-21.297z"/>
 <path d="m72.781 40h-45.578c-0.84375 0-1.5156-0.67188-1.5156-1.5156s0.67188-1.5156 1.5156-1.5156h45.594c0.84375 0 1.5156 0.67188 1.5156 1.5156-0.015625 0.82812-0.6875 1.5156-1.5312 1.5156z"/>
<text x="0.0" y="117.5" font-size="5.0" font-weight="bold" font-family="Arbeit Regular, Helvetica, Arial-Unicode, Arial, Sans-serif" fill="#000000">Created by Haider Ali</text><text x="0.0" y="122.5" font-size="5.0" font-weight="bold" font-family="Arbeit Regular, Helvetica, Arial-Unicode, Arial, Sans-serif" fill="#000000">from Noun Project</text></svg>