<svg xmlns="http://www.w3.org/2000/svg" version="1.1" viewBox="-5.0 -10.0 110.0 135.0">
 <g>
  <path d="m77.777 4.168h-55.555c-3.8281 0-6.9453 3.1172-6.9453 6.9453v77.777c0 3.8281 3.1172 6.9453 6.9453 6.9453h55.555c3.8281 0 6.9453-3.1172 6.9453-6.9453v-77.781c0-3.8281-3.1172-6.9453-6.9453-6.9453zm4.168 84.723c0 2.2969-1.8672 4.168-4.168 4.168l-55.555-0.003906c-2.2969 0-4.168-1.8672-4.168-4.168v-70.832h38.891c0.76563 0 1.3906-0.62109 1.3906-1.3906 0-0.76562-0.62109-1.3906-1.3906-1.3906l-38.891 0.003906v-4.168c0-2.2969 1.8672-4.168 4.168-4.168h55.555c2.2969 0 4.168 1.8672 4.168 4.168z"/>
  <path d="m25 9.7227h-1.3906c-0.76562 0-1.3906 0.62109-1.3906 1.3906 0 0.76562 0.62109 1.3906 1.3906 1.3906h1.3906c0.76562 0 1.3906-0.62109 1.3906-1.3906 0-0.76562-0.62109-1.3906-1.3906-1.3906z"/>
  <path d="m30.555 9.7227h-1.3906c-0.76562 0-1.3906 0.62109-1.3906 1.3906 0 0.76562 0.62109 1.3906 1.3906 1.3906h1.3906c0.76562 0 1.3906-0.62109 1.3906-1.3906 0-0.76562-0.62109-1.3906-1.3906-1.3906z"/>
  <path d="m36.109 9.7227h-1.3906c-0.76562 0-1.3906 0.62109-1.3906 1.3906 0 0.76562 0.62109 1.3906 1.3906 1.3906h1.3906c0.76562 0 1.3906-0.62109 1.3906-1.3906 0-0.76562-0.62109-1.3906-1.3906-1.3906z"/>
  <path d="m62.5 18.055h9.7227c0.76562 0 1.3906-0.62109 1.3906-1.3906 0-0.76562-0.62109-1.3906-1.3906-1.3906h-9.7227c-0.76562 0-1.3906 0.62109-1.3906 1.3906 0 0.76563 0.62109 1.3906 1.3906 1.3906z"/>
  <path d="m79.168 15.277h-1.3906c-0.76562 0-1.3906 0.62109-1.3906 1.3906 0 0.76562 0.62109 1.3906 1.3906 1.3906h1.3906c0.76562 0 1.3906-0.62109 1.3906-1.3906 0-0.76562-0.62109-1.3906-1.3906-1.3906z"/>
  <path d="m51.242 36.879c-0.46875-0.94141-2.0156-0.94141-2.4844 0l-13.891 27.777c-0.23047 0.45703-0.1875 1.0039 0.10937 1.4219 0.92188 1.3047 3.4414 5.0312 3.9883 6.6016 0.4375 1.2422 1.1055 5.2539 1.3281 6.6953 0.10547 0.67578 0.6875 1.1797 1.3711 1.1797h16.668c0.6875 0 1.2695-0.5 1.3711-1.1797 0.22266-1.4414 0.89062-5.4531 1.3281-6.6953 0.55078-1.5703 3.0664-5.2969 3.9883-6.6016 0.29688-0.41797 0.33594-0.96484 0.10938-1.4219l-13.891-27.777zm-1.2422 22.844c0.76562 0 1.3906 0.625 1.3906 1.3906s-0.625 1.3906-1.3906 1.3906-1.3906-0.625-1.3906-1.3906 0.625-1.3906 1.3906-1.3906zm8.4102 12.039c-0.44531 1.2695-0.98047 4.3047-1.2617 6.0156h-14.297c-0.28125-1.7109-0.82031-4.7461-1.2617-6.0156-0.62891-1.7969-2.8516-5.1289-3.8672-6.6016l10.887-21.777v13.816c-1.6133 0.57422-2.7773 2.1016-2.7773 3.9102 0 2.2969 1.8672 4.168 4.168 4.168 2.2969 0 4.168-1.8672 4.168-4.168 0-1.8086-1.1641-3.3359-2.7773-3.9102v-13.816l10.887 21.777c-1.0156 1.4727-3.2344 4.8047-3.8672 6.6016z"/>
  <path d="m56.945 81.945h-13.891c-0.76563 0-1.3906 0.62109-1.3906 1.3906 0 0.76562 0.62109 1.3906 1.3906 1.3906h13.891c0.76563 0 1.3906-0.62109 1.3906-1.3906 0-0.76563-0.62109-1.3906-1.3906-1.3906z"/>
  <path d="m74.941 46.07c-0.60156-10.184-9.0547-18.293-19.387-18.293h-1.3906v-1.3906c0-0.76562-0.62109-1.3906-1.3906-1.3906h-5.5547c-0.76562 0-1.3906 0.62109-1.3906 1.3906v1.3906h-1.3906c-10.332 0-18.785 8.1094-19.387 18.293-1.6445 0.55859-2.8359 2.0977-2.8359 3.9297 0 2.2969 1.8672 4.168 4.168 4.168 2.2969 0 4.168-1.8672 4.168-4.168 0-1.7891-1.1367-3.3047-2.7227-3.8945 0.57812-8.668 7.7969-15.551 16.609-15.551h1.3906v1.3906c0 0.76563 0.62109 1.3906 1.3906 1.3906h5.5547c0.76562 0 1.3906-0.62109 1.3906-1.3906v-1.3906h1.3906c8.8125 0 16.031 6.8828 16.609 15.551-1.5859 0.58984-2.7227 2.1055-2.7227 3.8945 0 2.2969 1.8672 4.168 4.168 4.168 2.2969 0 4.168-1.8672 4.168-4.168 0-1.8281-1.1914-3.3711-2.8359-3.9297zm-48.551 5.3203c-0.76562 0-1.3906-0.625-1.3906-1.3906s0.625-1.3906 1.3906-1.3906 1.3906 0.625 1.3906 1.3906-0.625 1.3906-1.3906 1.3906zm25-20.836h-2.7773v-2.7773h2.7773zm22.219 20.836c-0.76562 0-1.3906-0.625-1.3906-1.3906s0.625-1.3906 1.3906-1.3906 1.3906 0.625 1.3906 1.3906-0.625 1.3906-1.3906 1.3906z"/>
 </g>
<text x="0.0" y="117.5" font-size="5.0" font-weight="bold" font-family="Arbeit Regular, Helvetica, Arial-Unicode, Arial, Sans-serif" fill="#000000">Created by I Putu Dicky Adi Pranatha</text><text x="0.0" y="122.5" font-size="5.0" font-weight="bold" font-family="Arbeit Regular, Helvetica, Arial-Unicode, Arial, Sans-serif" fill="#000000">from Noun Project</text></svg>